<svg aria-hidden="true" style="position: absolute; width: 0; height: 0; overflow: hidden;" version="1.1" xmlns="http://www.w3.org/2000/svg" xmlns:xlink="http://www.w3.org/1999/xlink">
<defs>
<symbol id="login" viewBox="0 0 34 32">
<path fill="#3d425a" style="fill: var(--color1, #3d425a)" d="M16 0c-8.8 0-16 7.2-16 16 0 4.16 1.6 8.16 4.64 11.2l0.16 0.16c1.92 1.76 4.16 3.2 6.56 4 1.6 0.48 3.2 0.64 4.8 0.64s3.2-0.32 4.8-0.64c2.4-0.8 4.64-2.080 6.56-3.84l0.16-0.16c2.88-3.040 4.64-7.040 4.64-11.2-0.32-8.96-7.52-16.16-16.32-16.16zM16 3.2c7.040 0 12.8 5.76 12.8 12.8 0 2.72-0.8 5.28-2.4 7.36-1.28-2.080-3.2-3.52-5.44-4.48 1.12-1.28 1.92-2.88 1.92-4.8 0-3.84-3.040-6.88-6.88-6.88s-6.88 3.040-6.88 6.88c0 1.92 0.8 3.52 1.92 4.8-2.24 0.96-4 2.56-5.44 4.48-1.6-2.080-2.4-4.8-2.4-7.36 0-7.040 5.76-12.8 12.8-12.8z"></path>
</symbol>
<symbol id="logo" viewBox="0 0 128 32">
<path fill="#242d3c" style="fill: var(--color2, #242d3c)" d="M14.555 7.314v19.047h-3.080v-1.771c-0.53 0.65-1.189 1.138-1.976 1.463-0.77 0.325-1.626 0.488-2.567 0.488-1.318 0-2.507-0.291-3.568-0.873-1.044-0.582-1.865-1.403-2.464-2.464-0.599-1.078-0.898-2.31-0.898-3.696s0.299-2.61 0.898-3.671c0.599-1.061 1.42-1.882 2.464-2.464 1.061-0.582 2.25-0.873 3.568-0.873 0.907 0 1.737 0.154 2.49 0.462s1.395 0.77 1.925 1.386v-7.034h3.209zM7.316 23.794c0.77 0 1.463-0.171 2.079-0.513 0.616-0.359 1.104-0.864 1.463-1.515s0.539-1.403 0.539-2.259c0-0.856-0.18-1.609-0.539-2.259s-0.847-1.147-1.463-1.489c-0.616-0.359-1.309-0.539-2.079-0.539s-1.463 0.18-2.079 0.539c-0.616 0.342-1.104 0.839-1.463 1.489s-0.539 1.403-0.539 2.259c0 0.856 0.18 1.609 0.539 2.259s0.847 1.155 1.463 1.515c0.616 0.342 1.309 0.513 2.079 0.513z"></path>
<path fill="#242d3c" style="fill: var(--color2, #242d3c)" d="M24.246 23.82c1.489 0 2.73-0.496 3.722-1.489l1.694 1.977c-0.599 0.736-1.369 1.292-2.31 1.669s-2.002 0.565-3.183 0.565c-1.506 0-2.832-0.299-3.979-0.898s-2.036-1.429-2.67-2.49c-0.616-1.078-0.924-2.293-0.924-3.645 0-1.335 0.299-2.533 0.898-3.594 0.616-1.078 1.455-1.917 2.516-2.516 1.078-0.599 2.293-0.898 3.645-0.898 1.284 0 2.447 0.282 3.491 0.847 1.061 0.548 1.9 1.343 2.516 2.387 0.616 1.027 0.924 2.233 0.924 3.619l-10.499 2.054c0.325 0.787 0.847 1.386 1.566 1.797s1.583 0.616 2.593 0.616zM23.655 15.066c-1.181 0-2.139 0.385-2.875 1.155-0.719 0.77-1.078 1.805-1.078 3.106v0.026l7.752-1.489c-0.222-0.839-0.676-1.514-1.36-2.028-0.667-0.513-1.48-0.77-2.439-0.77z"></path>
<path fill="#242d3c" style="fill: var(--color2, #242d3c)" d="M45.226 12.653l-5.878 13.708h-3.311l-5.878-13.708h3.337l4.261 10.165 4.389-10.165h3.080z"></path>
<path fill="#242d3c" style="fill: var(--color2, #242d3c)" d="M52.349 23.82c1.489 0 2.73-0.496 3.722-1.489l1.694 1.977c-0.599 0.736-1.369 1.292-2.31 1.669s-2.002 0.565-3.183 0.565c-1.506 0-2.832-0.299-3.979-0.898s-2.037-1.429-2.67-2.49c-0.616-1.078-0.924-2.293-0.924-3.645 0-1.335 0.299-2.533 0.898-3.594 0.616-1.078 1.455-1.917 2.516-2.516 1.078-0.599 2.293-0.898 3.645-0.898 1.284 0 2.447 0.282 3.491 0.847 1.061 0.548 1.9 1.343 2.516 2.387 0.616 1.027 0.924 2.233 0.924 3.619l-10.499 2.054c0.325 0.787 0.847 1.386 1.566 1.797s1.583 0.616 2.593 0.616zM51.759 15.066c-1.181 0-2.139 0.385-2.875 1.155-0.719 0.77-1.078 1.805-1.078 3.106v0.026l7.752-1.489c-0.222-0.839-0.676-1.514-1.36-2.028-0.667-0.513-1.48-0.77-2.439-0.77z"></path>
<path fill="#242d3c" style="fill: var(--color2, #242d3c)" d="M65.263 26.541c-1.42 0-2.533-0.385-3.337-1.155-0.787-0.787-1.181-1.891-1.181-3.311v-14.76h3.209v14.529c0 1.369 0.642 2.054 1.925 2.054 0.428 0 0.813-0.086 1.155-0.257l0.154 2.567c-0.599 0.222-1.241 0.334-1.925 0.334z"></path>
<path fill="#242d3c" style="fill: var(--color2, #242d3c)" d="M74.252 26.541c-1.386 0-2.635-0.299-3.748-0.898s-1.985-1.429-2.618-2.49c-0.616-1.078-0.924-2.293-0.924-3.645s0.308-2.558 0.924-3.619c0.633-1.061 1.506-1.891 2.618-2.49s2.362-0.898 3.748-0.898c1.403 0 2.661 0.299 3.773 0.898s1.977 1.429 2.593 2.49c0.633 1.061 0.95 2.268 0.95 3.619s-0.317 2.567-0.95 3.645c-0.616 1.061-1.481 1.891-2.593 2.49s-2.37 0.898-3.773 0.898zM74.252 23.794c1.181 0 2.156-0.394 2.926-1.181s1.155-1.823 1.155-3.106c0-1.283-0.385-2.319-1.155-3.106s-1.745-1.181-2.926-1.181c-1.181 0-2.156 0.394-2.926 1.181-0.753 0.787-1.129 1.823-1.129 3.106s0.376 2.319 1.129 3.106c0.77 0.787 1.746 1.181 2.926 1.181z"></path>
<path fill="#242d3c" style="fill: var(--color2, #242d3c)" d="M91.208 12.499c1.335 0 2.524 0.291 3.568 0.873 1.061 0.582 1.89 1.403 2.49 2.464s0.898 2.285 0.898 3.671c0 1.386-0.3 2.618-0.898 3.696-0.599 1.061-1.429 1.882-2.49 2.464-1.044 0.582-2.234 0.873-3.568 0.873-1.848 0-3.312-0.616-4.389-1.848v6.648h-3.209v-18.688h3.055v1.797c0.53-0.65 1.18-1.138 1.95-1.463 0.787-0.325 1.651-0.488 2.593-0.488zM90.849 23.794c1.18 0 2.147-0.394 2.9-1.181 0.77-0.787 1.155-1.823 1.155-3.106s-0.385-2.319-1.155-3.106c-0.753-0.787-1.72-1.181-2.9-1.181-0.77 0-1.463 0.18-2.080 0.539-0.616 0.342-1.104 0.839-1.463 1.489s-0.539 1.403-0.539 2.259c0 0.856 0.18 1.609 0.539 2.259s0.847 1.155 1.463 1.515c0.617 0.342 1.31 0.513 2.080 0.513z"></path>
<path fill="#242d3c" style="fill: var(--color2, #242d3c)" d="M104.699 26.541c-1.421 0-2.533-0.385-3.337-1.155-0.787-0.787-1.181-1.891-1.181-3.311v-14.76h3.209v14.529c0 1.369 0.642 2.054 1.925 2.054 0.428 0 0.813-0.086 1.155-0.257l0.155 2.567c-0.599 0.222-1.241 0.334-1.925 0.334z"></path>
<path fill="#242d3c" style="fill: var(--color2, #242d3c)" d="M107.778 12.653h3.209v13.708h-3.209v-13.708zM109.395 10.394c-0.582 0-1.070-0.18-1.463-0.539-0.393-0.376-0.591-0.838-0.591-1.386s0.197-1.001 0.591-1.36c0.393-0.377 0.881-0.565 1.463-0.565s1.069 0.18 1.463 0.539c0.394 0.342 0.591 0.779 0.591 1.309 0 0.565-0.197 1.044-0.591 1.438-0.376 0.376-0.864 0.565-1.463 0.565z"></path>
<path fill="#58c791" style="fill: var(--color3, #58c791)" d="M123.003 0.123v0.001c0.261 0 0.521 0.009 0.778 0.029 0.083 0.006 0.166 0.013 0.249 0.022 0.108 0.011 0.214 0.023 0.32 0.038 0.059 0.007 0.117 0.016 0.176 0.024h0.013c0.044 0.005 0.089 0.014 0.134 0.021 0.030 0.006 0.060 0.009 0.089 0.015 0.091 0.016 0.182 0.033 0.272 0.051 0.126 0.026 0.25 0.053 0.374 0.083 0.013 0.004 0.028 0.005 0.041 0.009 0.021 0.005 0.041 0.009 0.059 0.015l0.013 0.003c0.153 0.039 0.304 0.081 0.455 0.126 0.056 0.016 0.112 0.035 0.169 0.052 0.044 0.015 0.088 0.029 0.133 0.044 0.033 0.011 0.066 0.022 0.099 0.033 0.013 0.003 0.020 0.007 0.031 0.011 0.013 0.004 0.024 0.009 0.036 0.013 0.051 0.018 0.102 0.037 0.153 0.055 0.013 0.004 0.022 0.009 0.033 0.013 0.021 0.009 0.043 0.017 0.065 0.026 0.041 0.016 0.082 0.031 0.123 0.048 0.229 0.57 0.407 1.165 0.531 1.779 0.133 0.656 0.202 1.335 0.202 2.029-0.291 4.358-2.419 7.803-6.203 9.701-0.104 0.051-0.208 0.099-0.314 0.147-0.023 0.009-0.046 0.020-0.069 0.030-0.102 0.045-0.205 0.089-0.308 0.131-0.684 0.278-1.401 0.489-2.145 0.626-0.013 0-0.013 0.006-0.019 0.006-0.647 0.118-1.313 0.18-1.993 0.18v-0.006c-0.188 0-0.375-0.005-0.561-0.015-0.022 0-0.043-0.005-0.065-0.005-0.044-0.006-0.087-0.006-0.13-0.009-0.028 0-0.055 0-0.082-0.006-0.091-0.007-0.18-0.015-0.269-0.024-0.075-0.008-0.148-0.016-0.222-0.025-0.018-0.006-0.037-0.006-0.055-0.006-0.084-0.011-0.169-0.023-0.254-0.035-0.184-0.028-0.366-0.059-0.547-0.096-0.087-0.018-0.174-0.036-0.26-0.056-0.045-0.009-0.088-0.021-0.133-0.032-0.046-0.088-0.092-0.175-0.136-0.264 0-0.006-0.013-0.013-0.013-0.020-0.053-0.108-0.105-0.217-0.153-0.327 0-0.009-0.013-0.020-0.013-0.031-0.045-0.103-0.089-0.206-0.131-0.31 0-0.007 0-0.013-0.013-0.020-0.228-0.57-0.407-1.164-0.53-1.779 0-0.013 0-0.027-0.013-0.041-0.013-0.032-0.013-0.065-0.018-0.097-0.013-0.047-0.019-0.094-0.026-0.141-0.013-0.036-0.013-0.071-0.016-0.107-0.013-0.047-0.016-0.095-0.023-0.142 0-0.029-0.013-0.059-0.013-0.088-0.013-0.054-0.016-0.107-0.022-0.161 0-0.022 0-0.044-0.013-0.066-0.013-0.063-0.014-0.126-0.020-0.19v-0.018c-0.030-0.322-0.047-0.649-0.047-0.979 0-0.695 0.070-1.373 0.202-2.030 0-0.025 0.013-0.050 0.016-0.074 0-0.019 0.013-0.037 0.013-0.055 0-0.025 0.013-0.051 0.017-0.076 0.013-0.033 0.016-0.067 0.023-0.1 0.013-0.045 0.020-0.091 0.032-0.136 0.013-0.032 0.016-0.064 0.024-0.096 0-0.011 0-0.022 0.013-0.034 0.018-0.069 0.036-0.137 0.055-0.205 0.013-0.039 0.022-0.079 0.034-0.117 0.013-0.037 0.023-0.074 0.035-0.111 0-0.015 0.013-0.030 0.013-0.045 0.022-0.068 0.044-0.137 0.066-0.204 0.013-0.028 0.019-0.057 0.029-0.085 0.052-0.149 0.106-0.296 0.165-0.441v-0.004c0.013-0.021 0.019-0.042 0.028-0.064 0.136-0.332 0.287-0.655 0.456-0.969 0.058-0.109 0.119-0.217 0.181-0.323 0.832-1.422 1.995-2.627 3.384-3.508 0.091-0.058 0.183-0.114 0.276-0.169 0.017-0.009 0.034-0.020 0.051-0.030 0.040-0.023 0.080-0.045 0.121-0.068 0.059-0.034 0.118-0.068 0.179-0.101 0.013-0.006 0.024-0.013 0.037-0.019 0.090-0.048 0.183-0.095 0.275-0.141 0.019-0.009 0.039-0.019 0.057-0.028 0.024-0.013 0.050-0.023 0.073-0.034 0.079-0.037 0.156-0.075 0.236-0.11 0.015-0.006 0.029-0.013 0.044-0.020 0.095-0.042 0.19-0.082 0.286-0.121 1.191-0.484 2.493-0.751 3.856-0.751l0.006 0.002zM109.333 6.037c1.269 0 2.319 1.049 2.319 2.318s-1.050 2.318-2.319 2.318c-1.27 0-2.32-1.049-2.32-2.318s1.050-2.318 2.32-2.318zM126.558 11.741c0.631 1.329 0.985 2.813 0.985 4.379 0 0.695-0.070 1.373-0.202 2.030-0.123 0.615-0.302 1.209-0.531 1.779-0.062 0.025-0.126 0.049-0.188 0.073-0.067 0.025-0.133 0.049-0.201 0.073 0 0.006-0.013 0.006-0.018 0.006-0.013 0.005-0.024 0.009-0.037 0.013-0.060 0.020-0.119 0.041-0.18 0.061-0.016 0.006-0.031 0.011-0.047 0.016-0.042 0.013-0.084 0.027-0.126 0.039-0.016 0.006-0.031 0.009-0.047 0.015-0.138 0.042-0.277 0.080-0.417 0.116-0.015 0.005-0.029 0.007-0.044 0.011-0.018 0.005-0.037 0.009-0.056 0.013-0.059 0.015-0.117 0.028-0.176 0.042-0.080 0.018-0.16 0.036-0.24 0.052-0.615 0.124-1.251 0.192-1.9 0.2h-0.13c-0.080 0-0.16 0-0.24-0.006h-0.069c-0.059 0-0.119-0.005-0.178-0.007-0.022 0-0.044-0.006-0.066-0.006-0.071-0.005-0.143-0.009-0.215-0.013h-0.027c-0.076-0.005-0.153-0.013-0.229-0.020-0.024-0.006-0.048-0.006-0.073-0.007-0.059-0.006-0.118-0.013-0.178-0.020-0.019-0.005-0.038-0.005-0.059-0.007-0.062-0.009-0.124-0.016-0.186-0.026-0.019-0.005-0.038-0.005-0.057-0.009-0.074-0.013-0.15-0.024-0.224-0.037-0.020-0.006-0.041-0.008-0.062-0.013-0.055-0.009-0.109-0.020-0.162-0.031-0.029-0.006-0.059-0.013-0.086-0.018-0.055-0.013-0.111-0.024-0.166-0.036-0.016-0.006-0.035-0.008-0.052-0.013-0.076-0.018-0.151-0.036-0.226-0.055-0.015-0.006-0.028-0.007-0.042-0.011-0.052-0.013-0.105-0.028-0.157-0.042-0.111-0.031-0.22-0.063-0.329-0.097-0.016-0.005-0.032-0.011-0.049-0.016-0.097-0.031-0.192-0.063-0.286-0.097-0.022-0.008-0.044-0.016-0.066-0.023-0.105-0.038-0.21-0.078-0.314-0.119-0.020-0.009-0.042-0.018-0.064-0.026-0.091-0.037-0.181-0.075-0.272-0.115-0.018-0.007-0.036-0.015-0.052-0.023-0.103-0.046-0.204-0.094-0.304-0.143-0.020-0.009-0.042-0.021-0.062-0.032-0.093-0.046-0.186-0.094-0.277-0.143-0.013-0.006-0.020-0.011-0.030-0.016-0.1-0.054-0.198-0.11-0.296-0.167-0.020-0.011-0.041-0.024-0.060-0.036-0.095-0.056-0.19-0.114-0.283-0.173v-0.005c-0.099-0.063-0.197-0.128-0.293-0.194-0.016-0.011-0.030-0.022-0.046-0.032-0.091-0.064-0.183-0.129-0.272-0.195 0 0 0-0.006-0.013-0.006-0.093-0.069-0.185-0.141-0.275-0.213-0.014-0.013-0.029-0.023-0.044-0.034-0.18-0.146-0.357-0.299-0.527-0.456-0.013-0.013-0.026-0.023-0.037-0.035-0.17-0.159-0.335-0.323-0.493-0.494-0.013-0.013-0.024-0.026-0.037-0.038-0.158-0.171-0.31-0.347-0.456-0.528-0.013-0.013-0.022-0.027-0.033-0.040-0.073-0.092-0.146-0.186-0.217-0.281-0.068-0.093-0.137-0.188-0.203-0.284-0.013-0.013-0.018-0.026-0.027-0.038-0.066-0.097-0.131-0.195-0.194-0.294 0-0.005-0.013-0.013-0.013-0.018-0.062-0.096-0.121-0.194-0.179-0.293 0-0.009-0.013-0.018-0.016-0.027-0.061-0.104-0.119-0.209-0.177-0.315 0-0.006 0-0.011-0.013-0.016-0.013-0.015-0.017-0.031-0.024-0.046l0.013 0.005c0.036 0.013 0.070 0.027 0.106 0.040 0.068 0.025 0.135 0.049 0.203 0.073 0.013 0.006 0.023 0.009 0.034 0.013 0.013 0.005 0.024 0.009 0.035 0.013 0.053 0.018 0.106 0.036 0.16 0.053 0.018 0.006 0.036 0.013 0.054 0.018 0.061 0.020 0.122 0.038 0.182 0.057 0.023 0.007 0.046 0.013 0.070 0.021 0.060 0.018 0.121 0.035 0.18 0.052 0.019 0.006 0.040 0.011 0.061 0.016 0.062 0.018 0.125 0.034 0.189 0.050 0.022 0.006 0.042 0.011 0.064 0.016 0.062 0.015 0.124 0.030 0.187 0.044 0.087 0.020 0.172 0.039 0.26 0.056 0.181 0.036 0.364 0.068 0.548 0.096 0.084 0.013 0.169 0.024 0.253 0.034 0.019 0.006 0.037 0.006 0.055 0.006 0.074 0.009 0.148 0.018 0.222 0.025 0.090 0.009 0.18 0.016 0.269 0.024 0.028 0.006 0.055 0.006 0.082 0.006 0.044 0.005 0.087 0.005 0.13 0.009 0.022 0 0.044 0.006 0.066 0.006 0.186 0.009 0.372 0.015 0.56 0.015v0.005c0.681 0 1.346-0.062 1.993-0.18 0.013 0 0.013-0.006 0.019-0.006 0.743-0.137 1.46-0.348 2.144-0.626 0.104-0.042 0.206-0.085 0.308-0.131 0.023-0.009 0.046-0.020 0.069-0.030 0.105-0.047 0.21-0.096 0.314-0.147 1.49-0.728 2.793-1.78 3.817-3.065l-0.005 0.004z"></path>
</symbol>
</defs>
</svg>
